<svg id="Layer_1" data-name="Layer 1" xmlns="http://www.w3.org/2000/svg" viewBox="0 0 818.65 1000"><defs><style>.cls-1{fill:#bcdff4;}.cls-2{fill:#f6bdbd;}.cls-3{fill:#8bb1d8;}.cls-4{fill:#e7d9c7;}.cls-5{fill:#f6f7f7;}.cls-6{fill:#d8b58b;}.cls-7{fill:#253652;}.cls-8{fill:#f5f1e7;}.cls-9{fill:#c1bbb4;}.cls-10{fill:#fdf3e7;}.cls-11{fill:#f29797;}.cls-12{fill:#e2b67b;}.cls-13{fill:#a7c8df;}.cls-14{fill:#e4beca;}.cls-15{fill:#8eb5d1;}</style></defs><path class="cls-1" d="M713.78,291.76c10.34,16.52,27.43,23.35,44.06,31,8.47,3.92,18.77,5.4,23.48,15.24-10.93-1.14-22-1.66-32.76-3.56-33.48-5.91-65.22-12.12-85.2-46.51-15-25.77-41.47-38.86-73.44-34.28-7.52,1.11-14.19-5.22-21.91-2.54l-5.49-2.53c-25.1-14.83-52.65-23.13-80.67-30.19l-7.56-2.27-4.23-1.91-8,.15c-8.37-1.57-14.32.29-14.55,10.25a7.33,7.33,0,0,0-1.48,3.54c-12.85,11.13-9.76,20.36,3.4,28.4l.07-.23,4.33,3.78-.15,0c1.78,6.66,6.46,7.57,12.3,6.19l4.19,1.3,3.18,2,18.91,6.55c2,3.59,3.85,7.48,9.19,6l3.56,2c30.32,24.95,57,53.27,79.1,85.76-6.25,75.21-58.93,140.35-149.74,154-26.09,3.91-52.35,2.22-79.9,4.38,7.67,9.94,26.48,3.36,24.71,20.34-5.17,49.48-7.83,100.35-59.71,128.2l-54.68.11c-23.17-2-42.68-10.53-55.34-31.17q2-15.95,3.92-31.89c3.2-1.69,3.94-4.48,3.5-7.8l.45-15.82q1.86-7.83,3.71-15.65.25-7.87.52-15.75c4.24-7.37,7.8-14.85,4.09-23.6,0-2.54,0-5.09,0-7.64,11.76-3.16,6.2-12.81,7.48-19.9,0-3.93.09-7.86.13-11.78,7.14-7,2.56-16.13,4.53-24.07,20.24,7.59,41.29,13.07,62.58,15,40.84,3.73,81.69,3.93,113.82-28.16,8.77-8.76,13.4-2.42,19.2,3.13,3,2.84,6.37,8.69,11,3.38,3.73-4.3-.08-8.85-3.65-11.69-6.9-5.48-14.25-10.66-8.19-20.78,5.65-9.41,5-20.11,7.32-30.21,1.11-4.93,4.84-11.32-.83-14.06-6.51-3.16-7.71,5-10.83,8.65-44.08,51.1-98.09,69.94-164.69,53.49C245,446.14,229.07,435,209.92,433.19c.4-16.94,12.9-31.09,11.22-48.52-.55-35.29.07-70.48,8.36-105.07,1.81-.68,4.51-.81,5.32-2.11,11.25-18.12,17.76-38.8,32-55.52,5.34-6.27-1.64-11.63-9.08-13.11-32.12-16.27-59.79-5.2-84.77,15.37-12,9.88-24.57,17.89-39.66,19.19-32.47,2.79-64.83.29-96.79-6.45,7.6-8.18,18.86-6.26,27.57-7,44.83-3.72,83.77-21.18,120.34-45.82,23.22-15.64,49.82-22,76.87-27,1.14.23,2.27.47,3.41.73,13.9,12.12,3.08,31,12.08,46.9,3.51-10.8-3.4-19.81,2.16-28.73,9,2.82,16.4,11.45,29.1,10.76-8-12.64-28.59-11.08-26.81-29.34,6.38,1.1,13,1.48,19.11,3.42,22.23,7.05,43,3.09,65-3.44,23.41-6.95,48.07-9.64,73.25-6,20.11,2.9,38,14.48,58.77,13.61l3.46,3.8c5.92,3.71,11.44,7.75,12.54,15.38l-12.55,8.13c-13.27-1.63-24.95,9.67-38.63,4.75l1.4-2.11c-.7.47-1.4.94-2.11,1.4-5.93.16-12.48.21-13.61,7.69-.63,4.17,4.05,5.08,7,4.07,15.53-5.39,33.8-1.94,47.08-14.51,8.15-.46,16.2-1.2,22.2-7.79,3.46-1.19,7.23-4.24,8.82,2.36,1.43,5.95,5.61,8.53,11.68,8.1l27.55.44,23.46,4.38c10.69,7.65,21.79,14.42,35.25,16,.93,2.41,1.14,5.77,2.89,7.09a349.74,349.74,0,0,1,50.43,45.95C691.85,278.76,700.89,288.81,713.78,291.76ZM421.69,216.1c-14.62-1.13-25.41,9.7-39,12.32-28.14,5.42-56.08,6.94-86.24-2.94,21.31,24.6,96.84,15,126.77-8,5.7-.9,11.71-1.12,15.65-7.14-13.74-7.12-27.44-7-43.11-3.36C403.66,217.09,415.39,207.92,421.69,216.1ZM451.14,339c-.35,12.36,9.7,12.7,17.44,13.36,8.7.74,16.37-3.28,20.95-11.6,6.31-11.44,4-21.76-5.6-29.54-13.06-10.57-25.12-5.72-36,4.66C445.27,324.06,434.6,333.38,451.14,339Zm-79.79-8.91c-7.37-5.56-16.36-7.74-15.18-17.21.44-3.46,4.33-5.89,8.94-6,3.82-.12,10.06,2.81,10-5.06-.07-5.15-3.66-8-7.8-10.37-10.56-6-20.4-4.31-28.4,4.11-8.57,9-10.28,19.69-2.42,30.13C345.4,337.49,356.73,338,371.35,330.05Zm0-121.57c.84-1.7,1.69-3.4,2.53-5.11l-58.4-14.14C332.65,201,351.77,205.53,371.33,208.48Zm5.44,181.82c-.58-16.65-9.58-25.05-25.8-25.82A143,143,0,0,1,376.77,390.3Zm-50-5.05c6.93,11.16,11.76,18.94,16.6,26.72C344.06,401.09,343.84,390.75,326.73,385.25Z"/><path class="cls-2" d="M815.4,361.83c6.53,13.38,2,26.53-2.78,38.6-25,63.3-73.74,101.42-137.71,117.16-44.09,10.84-86.76-.75-122.8-30.6,1.3-6.06,4.71-10.07,11-11.26C607,497.17,675.51,479,715.33,437.54c4.8-5,14.37-9.32,12-16.45-2.71-8.1-12.74-10.28-21.21-11.59-32.5-5-57.39-20.7-70.88-51.47-6.27-14.31-11.11-29.23-16.6-43.88-10-12.53-14-26.64-11-42.54,23.73,6.19,34.57,26,46.92,44.24,29,42.89,69.56,58.62,120.13,50.67C788.19,364.39,801.53,360.84,815.4,361.83Z"/><path class="cls-3" d="M563.13,475.72c-6.31,1.2-9.72,5.21-11,11.27-8.5,4.52-9.12,11.9-7.53,20.25,6.61,34.61,12.7,69.33,19.88,103.83,3.32,15.93,18.41,16.2,30.66,19.65q2.26,1.56,4.51,3.14l11.88,3.46c2.54,6.11,11.14,1.8,14.34,9l-14.56,6.33c-19,1.62-39.86-4.76-54.94,14-2.39,3-9.62,2.08-14.61,3-3.65-.44-7-.09-8.8,3.74l.1-.13-4.12,3.37-7.78.73c-1.9-3.63-5.41-4.23-8.95-4.78,20.16-8.42,34.39-20.27,28.68-45.35-6.34-27.84-10.94-56.11-18.25-83.68-4.37-16.49-19.51-23.16-35.58-16.92-24.72,9.61-50,14.73-76.4,12.69-13.6-1.05-16.46,5.3-16.24,17.39.55,29.35,0,58.73,0,88.09-4.91.73-12.79-1.22-13.62,4.52-3.88,27-26.33,26.14-44.88,31.34-4.56-5.14-10.81-3.05-16.39-3.8,51.89-27.85,54.55-78.72,59.72-128.2,1.77-17-17-10.4-24.71-20.34,27.55-2.16,53.81-.47,79.9-4.38,90.81-13.62,143.49-78.76,149.74-154,6.1-15.87,4.94-33,8.39-49.3l14,2c2.75,35.33.29,69.76-14.73,102.72C583.7,443.1,568.77,456.75,563.13,475.72Z"/><path class="cls-2" d="M48.8,401.05C32.34,372.71,12.08,346,6.52,312.71c-3.39-20.24-14.18-41.48,2.73-61.06L68,275.5c9.12,7.71,20.08,8.06,31.25,8,11.73,0,23.87-1.56,35.1.91,23.75,5.21,23.55,6.11,19.83-17.39,1-4.59,3.86-6.77,8.51-6.69,6.17,5.18,6.91.37,7.77-4.21l.12-.13c8.49.14,17,.24,15.18-12.29v.15c3.08-1,4.18-3.46,4.52-6.42l7.77-5.1c18.77-6.81,30.22.61,36.35,18.57.6,1.75,1.91,3.27,2.89,4.89-13.58,2.46-19.34,14.77-28.46,22.78-11.68,10.27-22.2,23.5-37.08,27.67-27.44,7.69-55.28,15.5-84.52,12.67-15.68-1.51-17.78,6.61-13.3,19.38C79.05,353,90.59,363,99.83,374.66a22.33,22.33,0,0,1-.24,3.83c-15.62,3.6-33,4.09-39.64,23.14Z"/><path class="cls-4" d="M335.85,680.7c18.55-5.2,41-4.3,44.88-31.34.83-5.74,8.71-3.79,13.62-4.51,6.69,16.55,14,32.43,35.62,32.72,1.48,2,2.92,5.77,4.45,5.81,29.07.64,58.65,7.67,86.72-6l7.78-.73L533,673.3l-.1.13,8.8-3.74c5-.9,12.22,0,14.61-3,15.08-18.77,35.92-12.39,54.94-14,20.79,5.64,41.58,5.45,62.39.18,9,1.45,18.45-1.07,27,3.85,4.05,2.33,8.49,4.36,8.53,9.75,0,6.65-5.68,5.9-9.91,7-29.1,7.46-58.6,13.32-88.54,15-142.76,8.15-285.68,2.66-428.52,4.31a706,706,0,0,1-115.13-8c-4.23-.65-12.23,1.79-7.48-7.75,41.08,0,82.14-.69,123.14,3.66,9.16,1,22.94,5.26,27.51-2.79,4.81-8.48-8.76-15.65-12.32-24.44l11.51-7.63C222.11,666.48,241.62,675,264.79,677,288.26,682.4,311.66,689.09,335.85,680.7Z"/><path class="cls-5" d="M99.59,378.49a22.39,22.39,0,0,0,.24-3.84c12.89-5.15,26.13-5.66,39.61-2.88,11.64,10.45,11,24.9,12.65,38.61V428c-.36,3.86-1.23,7.77-1,11.59.5,7.2,1.33,15.24,10.54,16.18,10.82,1.12,12.6-6.79,12.85-15.3,10.56-15.45,6.23-34.31,11.69-50.93q2-5.29,4.06-10.58c10.85-1.12,20.86,2.28,30.88,5.68,1.68,17.43-10.82,31.58-11.22,48.52-6.1,14.19-5.48,25.91,11.65,31.54-3.29,4.15-8.14,3.11-12.51,4-6.33,1.25-16.61,1.43-18.15,5.05-12.28,29-28.56,12.82-46.71,7.43-26.76-7.94-54.63-12.34-81.35-20.92,7-11.43,2-18.76-5.84-28.46-10.35-12.78-18.83-5.47-28.56-2.19-2.52-16.14,12.31-19.93,20.35-28.56,3.72.18,7.43.37,11.15.57a63.48,63.48,0,0,0,19.73,19.62c.4,7.35,5.39,8.35,11.26,8.15,1.91,6.93,5.67,12.84,13.56,9.83,8.56-3.25,6.53-11.45,5.64-18.51l.27-7.1A78.81,78.81,0,0,1,99.59,378.49Z"/><path class="cls-3" d="M221.57,464.73c-17.13-5.63-17.75-17.35-11.65-31.54,19.15,1.76,35.1,12.95,53.59,17.52,66.6,16.45,120.61-2.39,164.69-53.49,3.12-3.62,4.32-11.81,10.83-8.65,5.67,2.74,1.94,9.13.83,14.06-2.3,10.1-1.67,20.8-7.32,30.21-6.06,10.12,1.29,15.3,8.19,20.78,3.57,2.84,7.38,7.39,3.65,11.69-4.62,5.31-8-.54-11-3.38-5.8-5.55-10.43-11.89-19.2-3.13-32.13,32.09-73,31.89-113.82,28.16-21.29-1.95-42.34-7.43-62.59-15l-8.43-3.33C227.59,465.63,224.83,464.69,221.57,464.73Z"/><path class="cls-6" d="M197.94,653.46c3.56,8.79,17.13,16,12.32,24.44-4.57,8.05-18.35,3.77-27.51,2.79-41-4.35-82.06-3.63-123.14-3.66,3.93-23.91,14.23-44.3,33.47-59.59,21-16.66,41.63-14.57,60.49,5.31C166.15,636,175.91,653.68,197.94,653.46Z"/><path class="cls-7" d="M454.05,928.85c.21,7.08-1.17,20.09-4.73,32.72C442,987.64,425.68,1000,399.61,1000c-26.22,0-42.37-12-49.4-38.57-7.3-27.61-7.24-55.58,1.12-83,7.06-23.19,24-35.14,48.24-35.25C423.2,843,439,854,447.3,876.51,452.79,891.44,453.88,907.05,454.05,928.85Zm-16.1-9c1.41-10.84-.66-23.11-4.39-34.94-4.95-15.69-15.5-25.69-32.64-26.15-16.9-.46-29.16,7.66-34.34,23.71-8.4,26-8.84,52.53.12,78.61,5.49,16,17,23.65,34.37,23.25,16.87-.39,26.62-9.62,31.93-24.2C437.49,947.82,438.7,934.76,438,919.88Z"/><path class="cls-3" d="M815.4,361.83c-13.87-1-27.21,2.56-40.71,4.69-50.57,8-91.09-7.78-120.13-50.67-12.35-18.24-23.19-38.05-46.92-44.24l0,.06c-.8-3-3-4-5.88-4l-11.9-14c32-4.6,58.49,8.49,73.46,34.26,20,34.39,51.72,40.6,85.2,46.51,10.79,1.9,21.83,2.42,32.76,3.56C797,339.83,811,343.91,815.4,361.83Z"/><path class="cls-7" d="M202.57,965c27.56-39.49,52.67-75.32,77.57-111.29,3.11-4.5,5.79-9.15,12.11-7.89,9.28,1.86,4.95,9.47,5,14.42.46,24.21.39,48.43.17,72.64-.09,10.29-1,20.43,14.46,18.53,5.24-.64,8.9,1.37,8.59,7.63-.27,5.49-4.11,6.51-8.11,5.87-15.07-2.42-15.45,6.69-15,17.61.24,5.78,3.63,14.44-6.94,15.07-12.45.74-9.18-9.56-8.42-15.38,2.13-16.16-5.82-18.18-19.23-17.46C244,965.73,225.09,965,202.57,965Zm28.37-13.73c17,0,29.75-.06,42.51,0,4.53,0,8.09-1.64,8.15-6.29.25-20.62.11-41.25.11-61.87l-4.3-.11C262.85,904.4,248.29,925.79,230.94,951.25Z"/><path class="cls-7" d="M475.79,965c27.82-40,53.57-76.92,79.12-114,3-4.38,6.68-6.35,11.56-5.21,6.56,1.53,4.31,7.1,4.33,11.32.08,18.29-.47,36.6,0,54.88s-8.69,41.69,25.21,45.55c-21.64,3-28.56,13.74-25.53,31.83.94,5.65-2.46,8.1-8.16,8.18-6.75.09-7.81-4.22-6.83-9.05,4.8-23.62-8.85-25-26.76-23.78C512.57,965.88,496.23,965,475.79,965Zm27.53-13.35c17,0,29.28,0,41.55,0,5.6,0,10.78-.47,10.79-7.89q.06-30.56,0-61.09l-4.44-.74Z"/><path class="cls-3" d="M68,275.5,9.25,251.65c.49-7.37,6.86-8.57,11.8-11.27L29,237l7.52-.07c32,6.75,64.32,9.25,96.79,6.46,15.09-1.3,27.66-9.31,39.66-19.19,25-20.57,52.65-31.64,84.76-15.37-4,4.4-9.56,3-14.5,4-16.28,3.55-32.78,6.87-45.21,19.45l-7.77,5.09c-3.56.7-4.21,3.45-4.52,6.43v-.15c-7.6,1-12.08,5.78-15.18,12.29l-.12.13c-3.36,0-6.2.93-7.77,4.21-4.65-.08-7.53,2.1-8.51,6.69C126.3,278.76,97,275.92,68,275.5Z"/><path class="cls-8" d="M257.41,95.42c-1.61-11,.57-19.09,13.28-21.93,9.66-2.16,11.7-10,9.13-18.47-2.49-8.17-2.68-19.07,4.57-20,8.65-1.06,12.67,9,12.08,18.53-.11,1.86.59,3.78,1,6,5.35-2.88,9.26-7,14.79-9.34,12-5.19,27.62-1.27,36.59-14.05,15.4,11.15,21.49-5.11,31.16-10.65,5.58-3.19,10-.1,14.73,2-.25,1.48-.51,3-.77,4.44-7.91,16.32-24.11,21.07-38.9,27.78-8.22-.53-14.92,1-15.33,11.19l.08-.1-4,4,.1-.1a4,4,0,0,0-4,4l.1-.1a4,4,0,0,0-4,4l.1-.1-4.06,4,.13-.12-4.06,4,.11-.11-4.05,4,.11-.1c-8,0-11.32,4.53-11.89,11.89l.05-.07c-3.89,1.37-4.49,4.39-4,8l.09-.11c-5.64-.32-7.61,3.05-8,8l.13-.16c-9.67,6.79-12.8,16.37-11.87,27.68l0,0c-2.69-.1-3.74,1.53-4.1,3.88l.11-.14c-12.12,1.79-12.5-11.25-19.74-15.62l.09.15c.3-12-1.33-24.23,5.33-35.44C265.09,97.94,262.4,95.47,257.41,95.42Z"/><path class="cls-8" d="M513.37,184.28c-1.1-7.63-6.62-11.67-12.54-15.38a15.69,15.69,0,0,0,.45-3.55l-.08.09,4.05-4-.12.12,4-4.05-.1.1,4-4-.07.06,4-4-.1.12c6.84-6.51,18.88-9.35,16-22.69,1.5-8.74,11.25-15.42,8.76-24.41-3.81-13.77,6.48-6,10.34-8,5.62-2.17,6.22-14.61,16.19-7.91l-.11-.12c9,14.79,4.93,32.83,12,48.09-2.25,5.38-4.1,11-6.83,16.07-4.18,7.82-8.69,8.91-10.41-1.26-.74-4.35-.66-8.51-6.17-6.52s-2,6.48-1,9.85a83.35,83.35,0,0,0,4.73,12.76c5.11,10.12,1.28,15.79-9.06,15.2-18.19-1-9.82,8.12-6.85,15.56-6.07.42-10.25-2.16-11.68-8.11-1.59-6.6-5.36-3.55-8.81-2.37Z"/><path class="cls-3" d="M28.45,429.62C38.18,426.34,46.66,419,57,431.81c7.87,9.7,12.87,17,5.84,28.46-5.25,10.42-9.86,22-24.92,19.48-13.28-2.19-18.86-13.92-23.06-23.83C10,444.37,17.3,435,28.45,429.62Z"/><path class="cls-1" d="M673.68,652.89c-20.81,5.27-41.6,5.46-62.39-.18l14.56-6.34c-3.2-7.25-11.8-2.94-14.34-9,17.65-21.32,40.75-16.43,63.37-12.8,4.88.79,11.47,1.26,13.26,7.05,2.22,7.22-4.73,9.72-8.88,13.63C677,647.34,675.52,650.3,673.68,652.89Z"/><path class="cls-8" d="M713.78,291.76c-12.89-2.95-21.93-13-29.59-21.55a349.74,349.74,0,0,0-50.43-45.95c-1.75-1.32-2-4.68-2.89-7.09,12.44-9.46,18.75-.1,24.39,8.61,4.23,6.52,13.25,11.48,15,15.63C679.39,263.47,708.68,267.27,713.78,291.76Z"/><path class="cls-9" d="M409.82,22.81C442.27,3.34,477.26-3.89,514.64,2c6.76,1.06,14.5,2.17,18.58,9.42l-.69.85c-14.13-.88-27.82-4.51-42.16-5-28.07-1-52.83,10.94-79.05,17.12C410.8,23.86,410.3,23.34,409.82,22.81Z"/><path class="cls-9" d="M568.29,86.75c-10-6.7-10.57,5.74-16.19,7.91.23-11,3.89-23.28-11.16-28.21-1.54-3.4-7.31-3.72-6.5-8.91,7.51-4.46,14.36,10.31,20.34,2,5.25-7.32-.25-16.24-2.77-24.18-1.18-3.7-2.81-7.24-4.23-10.86L549,23.24q1.77.2,3.54.45L560,36Q564.16,61.38,568.29,86.75Z"/><path class="cls-9" d="M394,32.05c.26-1.48.52-3,.77-4.44q7.56-2.38,15.1-4.8c.48.53,1,1.05,1.49,1.54,1.16,10.33,8.2,4.1,13.1,5.18,14.76,3.24,32.11-5.15,44.35,9.49-14.88-.91-29.48-4.09-44.59-3.68C414.18,35.6,403.31,39.21,394,32.05Z"/><path class="cls-8" d="M595.62,201.19l-23.46-4.38c-.08-9.05,2.72-18.94,12.56-17.42S595.65,192,595.62,201.19Z"/><path class="cls-8" d="M607.35,143.42c-1.59,6-2.58,12.41-9.59,13.28-5,.62-9.12-2.86-8.91-7.95.29-7,5.45-11.7,11.83-12.93C604.92,135,606.36,139.94,607.35,143.42Z"/><path class="cls-9" d="M580.18,134.72c-7.07-15.26-3-33.3-12-48.09C588.78,98.53,583.89,116.77,580.18,134.72Z"/><path class="cls-9" d="M257.41,95.42c5,0,7.68,2.52,5,7.08-6.66,11.21-5,23.42-5.33,35.44C241.16,123.63,256,109.58,257.41,95.42Z"/><path class="cls-5" d="M229.35,468.61l8.43,3.33c-2,7.94,2.62,17.1-4.52,24.07C224.78,487.9,234.62,477.17,229.35,468.61Z"/><path class="cls-9" d="M257,137.79c7.24,4.37,7.62,17.41,19.74,15.62-2.71,4.91-7.68,3.85-12,4.54-1.13-.27-2.26-.51-3.4-.74C258.05,151.14,255.68,144.87,257,137.79Z"/><path class="cls-5" d="M225.64,535.33c3.71,8.75.15,16.23-4.09,23.6C214.3,549.57,221.09,542.65,225.64,535.33Z"/><path class="cls-5" d="M233.13,507.79c-1.28,7.09,4.28,16.74-7.48,19.9C225.41,520,224.28,512,233.13,507.79Z"/><path class="cls-5" d="M221,574.68q-1.86,7.83-3.71,15.65C212.17,583.6,210.92,577.8,221,574.68Z"/><path class="cls-8" d="M560,36l-7.47-12.32C562.87,23.06,565.3,27.21,560,36Z"/><path class="cls-5" d="M216.87,606.15c.44,3.32-.3,6.11-3.5,7.8C207.91,608.39,212.24,607.2,216.87,606.15Z"/><path class="cls-9" d="M541,15.5c4.69.51,7.23,3.24,8.07,7.75,0,0-1.24,1.22-1.23,1.21-4.33-1-7.15-3.4-7.71-8Z"/><path class="cls-1" d="M29,237l-7.95,3.35C22.76,237.05,25.61,236.41,29,237Z"/><path class="cls-9" d="M533.22,11.41l7.73,4.1-.86.93c-3.15-.25-6-1-7.56-4.18Z"/><path class="cls-1" d="M599.63,633.86q-2.25-1.58-4.51-3.14Z"/><path class="cls-10" d="M394,32.05c9.36,7.16,20.23,3.55,30.22,3.29,15.11-.41,29.71,2.77,44.6,3.69,7.33.51,11,6.43,15.26,10.93,15.86,16.6,35.62,19,56.91,16.49,15,4.93,11.39,17.24,11.16,28.21-3.86,1.94-14.15-5.81-10.34,8,2.49,9-7.26,15.67-8.76,24.4-7,6.41-17.85,10.08-16,22.7l.1-.12c-2.61.08-3.84,1.53-4,4l.07-.06-4,4,.1-.1-4,4.05.12-.12-4.05,4,.08-.09a13.18,13.18,0,0,0-3.91-.25c-20.8.87-38.66-10.71-58.77-13.61-25.18-3.62-49.84-.93-73.25,6-22,6.53-42.77,10.49-65,3.44-6.12-1.94-12.73-2.32-19.12-3.42-.19-1.27-.32-2.54-.39-3.82l-.15-4,0,0C288.15,142,294,133.56,292.53,122l-.13.16c5.38,0,7.59-3.07,8-8l-.09.11c3.49-1.57,4.5-4.39,4-8l-.05.07c7.63-.31,11-4.86,11.89-11.89l-.11.1,4.05-4-.11.11,4.06-4-.13.12,4.06-4-.1.1,4-4-.1.1,4-4-.1.1,4-4-.08.1c7.6-.33,11.42-5.82,15.33-11.19C369.84,53.12,386,48.37,394,32.05Z"/><path class="cls-11" d="M221.14,384.67c-10-3.4-20-6.8-30.89-5.68a82.17,82.17,0,0,0-50.81-7.22C126,369,112.72,369.5,99.83,374.65,90.59,363,79.05,353,73.9,338.32c-4.48-12.77-2.38-20.89,13.3-19.38,29.24,2.83,57.08-5,84.52-12.67,14.88-4.17,25.4-17.4,37.08-27.67,9.12-8,14.88-20.32,28.46-22.78q-3.88,11.9-7.76,23.78C221.21,314.19,220.59,349.38,221.14,384.67Z"/><path class="cls-12" d="M470.17,267.6c-1.4-.43-2.79-.87-4.19-1.29-1.59-7-7-6.58-12.3-6.2l.15,0-4.33-3.78-.07.22q-1.69-14.2-3.4-28.39a7.41,7.41,0,0,1,1.47-3.54c6-1.79,12.31-3.14,14.56-10.25l8-.16,4.23,1.92,7.56,2.25c24.74,15.79,51.08,27.32,80.67,30.21q2.75,1.27,5.49,2.52c16.35,11.68,32.26,22.71,33.84,46.35.72,10.71,0,16.08-10.69,17.91-4.39-1.15-8.82-2.2-13.18-3.47-25.07-7.25-47.11-22.51-73-27.68l-3.56-2c-.93-5.24-4.29-6.81-9.19-6l-18.91-6.54A6.24,6.24,0,0,0,470.17,267.6Zm70.38,16.95c7.67-.4,11.8-3.8,14.13-10.08,2.68-7.21,1.29-13.08-6.2-16.1-12.05-4.84-24.17-9.53-36.46-13.72-5.46-1.85-10.49.06-13.13,5.64-2.78,5.91-2.7,12.62,3.07,15.79C514.42,273,527.64,278.47,540.55,284.55Z"/><path class="cls-13" d="M505,284.25c25.86,5.17,47.9,20.43,73,27.68,4.36,1.27,8.79,2.32,13.19,3.47q.66,2.66,1.33,5.31c-3.45,16.33-2.29,33.43-8.39,49.3C562,337.52,535.33,309.2,505,284.25Z"/><path class="cls-14" d="M229.5,279.6q3.87-11.89,7.76-23.78c-1-1.62-2.29-3.14-2.89-4.89-6.13-18-17.58-25.38-36.35-18.57,12.43-12.58,28.93-15.9,45.21-19.45,4.94-1.08,10.49.35,14.5-4,7.45,1.48,14.43,6.84,9.09,13.11-14.24,16.72-20.75,37.4-32,55.52C234,278.79,231.31,278.92,229.5,279.6Z"/><path class="cls-7" d="M448,315.84c10.86-10.38,22.92-15.23,36-4.66,9.61,7.78,11.91,18.1,5.6,29.54-4.58,8.32-12.25,12.34-20.95,11.6-7.74-.66-17.79-1-17.45-13.36,7.06,1,11.58-2.45,12.19-9C464.32,319.27,454,319.66,448,315.84Z"/><path class="cls-7" d="M371.35,330.05c-14.62,7.95-26,7.44-34.9-4.44-7.86-10.44-6.15-21.12,2.42-30.13,8-8.42,17.84-10.13,28.4-4.11,4.14,2.35,7.73,5.22,7.8,10.37.1,7.87-6.14,4.94-10,5.06-4.61.15-8.5,2.58-8.94,6C355,322.31,364,324.49,371.35,330.05Z"/><path class="cls-6" d="M592.5,320.71q-.68-2.65-1.33-5.31c10.7-1.83,11.4-7.2,10.68-17.91-1.58-23.64-17.49-34.67-33.84-46.35,7.72-2.67,14.39,3.66,21.91,2.55q5.93,7,11.89,14l5.87,4,0-.06c-3,15.9,1,30,11,42.55-5.61.61-9.28,4-12.15,8.5Z"/><path class="cls-15" d="M423.25,217.45c-29.95,23-105.48,32.63-126.79,8,30.16,9.88,58.1,8.36,86.24,2.94,13.58-2.62,24.37-13.45,39-12.32A6.71,6.71,0,0,1,423.25,217.45Z"/><path class="cls-6" d="M562.52,248.62c-29.59-2.89-55.93-14.42-80.67-30.21C509.87,225.49,537.42,233.79,562.52,248.62Z"/><path class="cls-15" d="M280.84,153.71c.07,1.28.2,2.55.39,3.82-1.77,18.26,18.82,16.7,26.82,29.34-12.7.69-20.08-7.94-29.1-10.76-5.56,8.92,1.35,17.93-2.16,28.73-9-15.92,1.82-34.78-12.08-46.9,4.31-.68,9.28.38,12-4.53l-.11.14Z"/><path class="cls-15" d="M371.33,208.48c-19.56-2.95-38.68-7.48-55.87-19.25l58.4,14.14C373,205.08,372.17,206.78,371.33,208.48Z"/><path class="cls-15" d="M462.19,197.17c13.68,4.91,25.36-6.39,38.63-4.76l1.09,1.3c-13.28,12.56-31.55,9.11-47.08,14.5-2.91,1-7.59.1-7-4.07,1.13-7.48,7.68-7.53,13.61-7.69Z"/><path class="cls-13" d="M335.85,680.7c-24.19,8.39-47.59,1.7-71.06-3.69l54.68-.11C325,677.65,331.29,675.56,335.85,680.7Z"/><path class="cls-5" d="M448,315.84c6,3.82,16.37,3.43,15.37,14.12-.61,6.55-5.13,10-12.19,9C434.6,333.38,445.27,324.06,448,315.84Z"/><path class="cls-15" d="M421.69,216.1c-6.3-8.18-18,1-25.92-9.17,15.67-3.63,29.37-3.76,43.11,3.36-3.94,6-9.95,6.24-15.64,7.15A6.65,6.65,0,0,0,421.69,216.1Z"/><path class="cls-13" d="M376.77,390.3A143,143,0,0,0,351,364.48C367.19,365.25,376.19,373.65,376.77,390.3Z"/><path class="cls-13" d="M326.73,385.25c17.11,5.5,17.33,15.84,16.6,26.72C338.49,404.19,333.66,396.41,326.73,385.25Z"/><path class="cls-6" d="M446,228.19q1.71,14.19,3.4,28.39C436.27,248.55,433.18,239.32,446,228.19Z"/><path class="cls-6" d="M462.06,214.4c-2.25,7.11-8.57,8.46-14.56,10.25C447.74,214.69,453.69,212.83,462.06,214.4Z"/><path class="cls-15" d="M513.37,184.28l10.75,1.62c-6,6.6-14.06,7.34-22.21,7.8,0,0-1.08-1.28-1.09-1.29Z"/><path class="cls-6" d="M453.68,260.11c5.34-.38,10.71-.82,12.3,6.2C460.14,267.68,455.46,266.77,453.68,260.11Z"/><path class="cls-6" d="M492.26,276.16c4.9-.76,8.26.81,9.19,6C496.11,283.64,494.28,279.75,492.26,276.16Z"/><path class="cls-6" d="M449.5,256.36l4.33,3.78Z"/><path class="cls-6" d="M474.29,216.16l-4.23-1.92Z"/><path class="cls-15" d="M461.48,196.45c.71-.46,1.41-.93,2.11-1.4l-1.4,2.11Z"/><path class="cls-9" d="M497.37,165.1a13.18,13.18,0,0,1,3.91.25,15.69,15.69,0,0,1-.45,3.55Z"/><path class="cls-6" d="M470.17,267.6a6.24,6.24,0,0,1,3.18,2Z"/><path class="cls-11" d="M606.5,322.66c2.87-4.52,6.54-7.89,12.15-8.5C624.13,328.8,629,343.72,635.24,358c13.49,30.77,38.38,46.43,70.88,51.47,8.47,1.31,18.5,3.49,21.21,11.59,2.37,7.13-7.2,11.46-12,16.45C675.51,479,607,497.17,563.13,475.73c5.64-19,20.57-32.63,28.64-50.35C606.79,392.42,609.25,358,606.5,322.66Z"/><path class="cls-1" d="M430,677.57c-21.64-.29-28.93-16.17-35.62-32.72.08-29.37.6-58.75,0-88.1-.22-12.09,2.64-18.44,16.24-17.39,26.42,2,51.68-3.08,76.4-12.69,16.07-6.24,31.21.43,35.58,16.92,7.31,27.57,11.91,55.84,18.25,83.68,5.71,25.08-8.52,36.93-28.67,45.36Z"/><path class="cls-15" d="M430,677.57l82.23-4.94c3.53.54,7,1.14,8.94,4.77-28.07,13.65-57.65,6.62-86.72,6C432.89,683.34,431.45,679.59,430,677.57Z"/><path class="cls-15" d="M541.74,669.69l-8.8,3.74C534.77,669.6,538.09,669.25,541.74,669.69Z"/><path class="cls-15" d="M533,673.3l-4.12,3.37Z"/><path class="cls-1" d="M99.59,378.49a78.69,78.69,0,0,0,10.83,35.13c-11.79-3.68-20.49,5.12-30.74,7.63A63.48,63.48,0,0,1,60,401.63C66.54,382.58,84,382.09,99.59,378.49Z"/><path class="cls-14" d="M68,275.5c29.05.42,58.33,3.26,86.18-8.45,3.72,23.5,3.92,22.6-19.83,17.39-11.23-2.47-23.37-.94-35.1-.91C88.05,283.56,77.09,283.21,68,275.5Z"/><path class="cls-14" d="M170.55,256c3.1-6.51,7.58-11.33,15.18-12.29C187.51,256.26,179,256.16,170.55,256Z"/><path class="cls-14" d="M162.66,260.36c1.57-3.28,4.41-4.22,7.77-4.21C169.57,260.73,168.83,265.54,162.66,260.36Z"/><path class="cls-14" d="M185.73,243.88c.31-3,1-5.73,4.52-6.43C189.91,240.42,188.81,242.85,185.73,243.88Z"/><path class="cls-1" d="M139.44,371.77A82.17,82.17,0,0,1,190.25,379l-4.05,10.58c-12.72,4.72-15.81,25.21-34.11,20.81C150.45,396.67,151.08,382.22,139.44,371.77Z"/><path class="cls-15" d="M152.09,410.38c18.3,4.4,21.39-16.09,34.11-20.81-5.46,16.62-1.13,35.48-11.7,50.94-5.22-8.18-13.5-10.89-22.41-12.48Z"/><path class="cls-14" d="M152.09,428c8.91,1.59,17.19,4.3,22.41,12.48-.24,8.5-2,16.41-12.84,15.29-9.21-.94-10-9-10.54-16.18C150.86,435.8,151.73,431.89,152.09,428Z"/><path class="cls-14" d="M110.14,420.72c.89,7.06,2.92,15.26-5.64,18.51-7.89,3-11.65-2.9-13.55-9.83C95.83,423.14,102.7,421.29,110.14,420.72Z"/><path class="cls-13" d="M110.14,420.72c-7.44.57-14.31,2.42-19.19,8.68-5.88.2-10.87-.8-11.27-8.15,10.25-2.51,18.95-11.31,30.74-7.63C110.32,416,110.23,418.35,110.14,420.72Z"/><path class="cls-2" d="M607.68,271.67l-5.87-4C604.69,267.65,606.88,268.63,607.68,271.67Z"/><path class="cls-9" d="M292.53,122c1.42,11.53-4.38,20-11.87,27.68C279.73,138.4,282.86,128.82,292.53,122Z"/><path class="cls-9" d="M355.05,59.83c-3.91,5.37-7.73,10.86-15.33,11.19C340.13,60.87,346.83,59.3,355.05,59.83Z"/><path class="cls-9" d="M316.17,94.54c-.89,7-4.26,11.58-11.89,11.89C304.85,99.07,308.21,94.51,316.17,94.54Z"/><path class="cls-9" d="M300.41,114.21c-.42,4.91-2.63,8-8,8C292.8,117.26,294.77,113.89,300.41,114.21Z"/><path class="cls-9" d="M304.33,106.36c.49,3.57-.52,6.39-4,8C299.84,110.75,300.44,107.73,304.33,106.36Z"/><path class="cls-9" d="M339.8,70.92l-4,4Z"/><path class="cls-9" d="M280.84,153.71l-4.25-.16c.36-2.35,1.41-4,4.1-3.88Z"/><path class="cls-9" d="M324.06,86.65l-4.06,4Z"/><path class="cls-9" d="M328,82.73l-4.06,4Z"/><path class="cls-9" d="M331.93,78.79l-4,4A4,4,0,0,1,331.93,78.79Z"/><path class="cls-9" d="M335.86,74.86l-4,4A4,4,0,0,1,335.86,74.86Z"/><path class="cls-9" d="M320.11,90.59l-4.05,4Z"/><path class="cls-9" d="M517,149.72c-1.81-12.62,9.06-16.29,16-22.7C535.84,140.37,523.8,143.21,517,149.72Z"/><path class="cls-9" d="M501.2,165.44l4.05-4Z"/><path class="cls-9" d="M505.13,161.52l4-4.05Z"/><path class="cls-9" d="M509.07,157.57l4-4Z"/><path class="cls-9" d="M513,153.61c.2-2.48,1.43-3.93,4-4Z"/><path class="cls-8" d="M540.94,66.45C519.65,69,499.89,66.56,484,50c-4.3-4.5-7.93-10.42-15.26-10.93-12.25-14.65-29.6-6.26-44.36-9.5-4.9-1.08-11.94,5.15-13.1-5.18,26.23-6.17,51-18.09,79.06-17.11,14.34.51,28,4.14,42.16,5,1.55,3.15,4.41,3.93,7.56,4.18.55,4.62,3.37,7,7.7,8,1.41,3.63,3,7.17,4.22,10.87,2.52,7.94,8,16.86,2.77,24.18-6,8.34-12.83-6.43-20.34-2C533.63,62.73,539.4,63.05,540.94,66.45Zm-32.38-22c-3.69-1.89-5.71-3.49-7.94-3.91-2.43-.44-5.92.12-4.49,3.73.62,1.56,4.09,2.36,6.39,2.74C503.82,47.27,505.38,45.92,508.56,44.5Zm10.61,4.91c-.4-.46-.87-1.35-1.18-1.3a18.91,18.91,0,0,0-3.16,1.12c.4.45.88,1.34,1.19,1.28A17.09,17.09,0,0,0,519.17,49.41Zm7.72,3.19-.66.86,1.07.14Z"/><path class="cls-4" d="M540.55,284.55c-12.91-6.08-26.13-11.6-38.59-18.47-5.77-3.17-5.85-9.88-3.07-15.79,2.64-5.58,7.67-7.49,13.13-5.64,12.29,4.19,24.41,8.88,36.46,13.72,7.49,3,8.88,8.89,6.2,16.1C552.35,280.75,548.22,284.15,540.55,284.55Z"/><path class="cls-9" d="M508.56,44.5c-3.18,1.42-4.74,2.77-6,2.56-2.3-.38-5.77-1.18-6.39-2.74-1.43-3.61,2.06-4.17,4.49-3.73C502.85,41,504.87,42.61,508.56,44.5Z"/><path class="cls-9" d="M519.17,49.42A17.82,17.82,0,0,1,516,50.51c-.31.06-.79-.83-1.19-1.28A18.91,18.91,0,0,1,518,48.11C518.3,48.06,518.77,49,519.17,49.42Z"/><polygon class="cls-9" points="526.89 52.6 527.3 53.6 526.23 53.45 526.89 52.6"/></svg>