<?xml version="1.0" encoding="utf-8"?>
<!-- Generator: Adobe Illustrator 24.1.0, SVG Export Plug-In . SVG Version: 6.00 Build 0)  -->
<svg version="1.1" id="Layer_1" xmlns="http://www.w3.org/2000/svg" xmlns:xlink="http://www.w3.org/1999/xlink" x="0px" y="0px"
	 viewBox="0 0 200 200" style="enable-background:new 0 0 200 200;" xml:space="preserve">
<style type="text/css">
	.st0{fill:#5774F9;}
</style>
<path class="st0" d="M103.6,71.2c-2.7-5.2-1.3-9.5,4.4-12.3c6.8-3.3,14-4.6,21.5-3.6c2.7,0.4,4.5,0.3,6.5-2.2
	c3.6-4.5,8.6-5.8,14.1-3.6c9.3,3.7,18.6,2,27.6-1c6.9-2.3,10.3-9.3,8.7-16.3c-0.7-2.9-1.7-5.7-5.1-6.2c-3.6-0.5-5.4,2.2-7.2,4.6
	c-0.9,1.2-0.2,3.1-1.9,4.2c-2-1.3-1.8-4.6-4.5-5.4c-0.2-0.1-0.3-0.9-0.2-1.4c0.4-2.7,8-10.5,10.5-10.9c8.1-1.1,12.4,1,15.3,7.4
	c3.7,8.4,1.9,19.2-4.5,25.9c-4.1,4.2-8.3,8.3-12.5,12.5c-0.6,0.6-1.5,1.1-1.2,2c0.5,1.4,1.6,0.8,2.5,0.6c2.9-0.7,5.8-1.4,9.4-2.2
	c-2.2,5-6.5,5.8-10.3,7.3c-1.5,0.6-4.7-0.2-3.4,3.8c0.4,1.3-2.4,3-4.7,3.4c-11.6,1.8-20.4,12.9-19.4,24.3c0,0.2,0,0.3,0,0.5
	c-0.4,10.1,1.2,19.8,4.9,29.2c2.1,5.4,3.1,11.3,4.3,17.1c0.9,4.2,3.4,7.7,4.8,11.4c2.4,6.8,7.8,7.2,13,8.8
	c7.7,2.4,14.8,6.2,21.6,10.6c1.2,0.8,2,1.8,2.3,3.2h0c-66.3-17.8-132.8-15.9-200-1.3c7-6.4,15.1-9.6,23.4-12.4
	c8.4-2.9,17.2-4.3,25.9-6.5c-3.6-5.8-1.9-16.9,3.3-23.7c3-4,5.8-8.2,9-12.2c6.2-7.7,3.6-15.9,2-24.1c-0.5-2.3-2.1-2.8-4.3-2.2
	c-3.6,1.1-6.3,3.2-7.8,6.7c-1,2.3-1.9,4.6-3.3,6.8c-0.1-5.4,1.7-10.4,4.5-14.6c5.7-8.4,12.8-15.7,20.6-22.1
	c5.1-4.2,11.1-6.1,17.8-5.5c3.8,0.4,7.7,0.1,11.6,0.1c1.3,3.4,2.8-0.2,3-0.1C105.8,71.8,104.7,71.5,103.6,71.2z M94.6,144.1
	C94.7,144.1,94.7,144.1,94.6,144.1c0.1,1,0.1,2,0.1,3c0.1,9.8,2,11.8,11.5,11.9c0.8,0,1.7-0.2,2.5,0.1c2.5,0.8,3.7-0.2,4.3-2.6
	c2.2-9.1,3.1-18.5,6-27.5c0.7-2.3-0.1-4.1-3-3.7c-5.7,0.6-11.2,1.5-16.4,4.1c-2.9,1.4-4.3,3.7-4.6,6.7
	C94.8,138.7,94.8,141.4,94.6,144.1z M139.1,140.2c1.9-2.2-0.2-2.8-1.8-3.2c-2.1-0.5-2.4,1.4-2.7,2.8c-1.1,4.4-2.6,8.7-4.6,12.8
	c-1.3,2.7-2.5,6.2,0.6,7.6c3.7,1.6,8,1.9,12.2,1.7c0.4,0,0.7-1.7,0.9-2.7c1.2-4.9-1.3-9.1-2.9-13.5
	C140.2,143.9,139,142.4,139.1,140.2z M80,151.1c-0.2-2.9-0.3-5.4-0.4-8c-0.2-4.3-2.5-3.7-5.2-2.3c-1.2,0.6-2.3,1.4-3.4,2.1
	c-8,4.9-7.8,6-2.9,14.1c2.9,4.8,6.7,3,10.1,2.6c3.1-0.4,1.4-3.9,1.8-6C80.2,152.7,80,151.7,80,151.1z M164.7,71
	c2.3-1.9,3.9-3.3,6.5-5.4C167.4,66,164.6,66,164.7,71z M87.7,125.8c3.7-2.5,2.7-5.5,2.6-8.2C90.6,120.3,89,122.4,87.7,125.8z"/>
</svg>
