<?xml version="1.0" encoding="utf-8"?>
<!-- Generator: Adobe Illustrator 24.1.0, SVG Export Plug-In . SVG Version: 6.00 Build 0)  -->
<svg version="1.1" id="Layer_1" xmlns="http://www.w3.org/2000/svg" xmlns:xlink="http://www.w3.org/1999/xlink" x="0px" y="0px"
	 viewBox="0 0 200 200" style="enable-background:new 0 0 200 200;" xml:space="preserve">
<style type="text/css">
	.st0{fill:#5774F9;}
	.st1{fill:#3A3A3A;}
</style>
<g>
	<path class="st0" d="M102.64,58.13c-1.98-3.86-0.99-7,3.24-9.08c4.99-2.45,10.35-3.43,15.89-2.64c2,0.28,3.34,0.22,4.8-1.59
		c2.66-3.29,6.32-4.29,10.38-2.67c6.9,2.76,13.7,1.48,20.34-0.74c5.06-1.69,7.61-6.87,6.45-12c-0.48-2.12-1.24-4.23-3.73-4.6
		c-2.63-0.4-3.97,1.61-5.33,3.42c-0.67,0.89-0.15,2.29-1.42,3.1c-1.51-0.94-1.34-3.43-3.34-3.98c-0.14-0.04-0.2-0.68-0.15-1.01
		c0.3-1.99,5.89-7.75,7.73-8.01c5.97-0.84,9.18,0.71,11.28,5.44c2.74,6.17,1.37,14.21-3.35,19.09c-3.02,3.12-6.14,6.13-9.21,9.2
		c-0.42,0.42-1.13,0.78-0.87,1.5c0.36,1.01,1.18,0.57,1.87,0.41c2.15-0.5,4.29-1.01,6.91-1.62c-1.66,3.7-4.8,4.25-7.58,5.4
		c-1.13,0.47-3.46-0.12-2.48,2.82c0.33,0.99-1.78,2.25-3.5,2.52c-8.57,1.35-15.05,9.49-14.35,17.93c0.01,0.12,0.02,0.25,0.02,0.37
		c-0.27,7.44,0.89,14.59,3.62,21.59c1.57,4.01,2.32,8.37,3.21,12.62c0.65,3.09,2.53,5.65,3.51,8.41c1.78,5.04,5.78,5.32,9.61,6.52
		c5.71,1.79,10.93,4.58,15.94,7.8c0.87,0.56,1.47,1.33,1.68,2.37h0.01c-48.96-13.11-98.01-11.73-147.64-0.94
		c5.17-4.7,11.12-7.08,17.25-9.16c6.21-2.11,12.69-3.17,19.1-4.79c-2.64-4.31-1.39-12.44,2.45-17.53c2.24-2.97,4.3-6.09,6.63-8.98
		c4.55-5.65,2.66-11.74,1.45-17.8c-0.34-1.69-1.58-2.08-3.14-1.6c-2.63,0.8-4.63,2.38-5.77,4.91c-0.76,1.67-1.42,3.39-2.41,4.99
		c-0.08-3.96,1.25-7.66,3.35-10.77c4.19-6.19,9.43-11.56,15.19-16.32c3.75-3.09,8.17-4.52,13.17-4.06c2.83,0.26,5.71,0.06,8.57,0.07
		c0.96,2.51,2.05-0.18,2.19-0.11C104.27,58.61,103.46,58.37,102.64,58.13z M96.05,111.96c0.02,0,0.05,0,0.07,0c0,0.74,0,1.49,0,2.23
		c0.04,7.2,1.5,8.71,8.51,8.8c0.62,0.01,1.28-0.12,1.85,0.05c1.85,0.57,2.74-0.14,3.18-1.95c1.63-6.74,2.28-13.68,4.41-20.32
		c0.54-1.67-0.07-2.99-2.22-2.76c-4.18,0.43-8.28,1.13-12.11,3.04c-2.14,1.06-3.14,2.76-3.38,4.96
		C96.14,107.99,96.14,109.98,96.05,111.96z M128.9,109.08c1.38-1.63-0.17-2.08-1.33-2.36c-1.58-0.38-1.79,1.07-2.03,2.08
		c-0.78,3.27-1.91,6.41-3.38,9.42c-0.98,2.01-1.87,4.56,0.44,5.58c2.71,1.19,5.93,1.42,9,1.22c0.27-0.02,0.51-1.27,0.68-1.97
		c0.86-3.65-0.98-6.75-2.13-9.98C129.7,111.81,128.77,110.7,128.9,109.08z M85.22,117.11c-0.12-2.17-0.25-4.02-0.33-5.88
		c-0.13-3.18-1.87-2.73-3.82-1.69c-0.87,0.46-1.67,1.04-2.51,1.56c-5.89,3.63-5.78,4.42-2.16,10.41c2.13,3.53,4.96,2.25,7.44,1.92
		c2.26-0.3,1-2.87,1.35-4.41C85.36,118.31,85.22,117.54,85.22,117.11z M147.79,57.98c1.68-1.39,2.9-2.41,4.8-3.98
		C149.73,54.34,147.67,54.28,147.79,57.98z M90.94,98.46c2.76-1.86,2.01-4.04,1.9-6.06C93.06,94.41,91.91,95.97,90.94,98.46z"/>
	<g>
		<path d="M50.19,147.13v6.12h7.2v2.79h-7.2v6.39h8.1v2.79H46.77v-20.88h11.52v2.79L50.19,147.13L50.19,147.13z"/>
		<path d="M65.91,143.02v22.2h-3.42v-22.2H65.91z"/>
		<path d="M85.44,158.23H72.81c0.1,1.32,0.59,2.38,1.47,3.18c0.88,0.8,1.96,1.2,3.24,1.2c1.84,0,3.14-0.77,3.9-2.31h3.69
			c-0.5,1.52-1.41,2.77-2.71,3.74c-1.31,0.97-2.94,1.46-4.88,1.46c-1.58,0-3-0.36-4.25-1.07s-2.23-1.71-2.94-3
			c-0.71-1.29-1.06-2.79-1.06-4.49c0-1.7,0.34-3.2,1.03-4.49c0.69-1.29,1.66-2.29,2.91-2.99c1.25-0.7,2.69-1.05,4.31-1.05
			c1.56,0,2.95,0.34,4.17,1.02c1.22,0.68,2.17,1.63,2.85,2.86s1.02,2.65,1.02,4.25C85.56,157.17,85.52,157.73,85.44,158.23z
			 M81.99,155.47c-0.02-1.26-0.47-2.27-1.35-3.03s-1.97-1.14-3.27-1.14c-1.18,0-2.19,0.38-3.03,1.12s-1.34,1.77-1.5,3.04h9.15
			V155.47z"/>
		<path d="M95.85,151.48h-3.06v13.74h-3.45v-13.74h-1.95v-2.79h1.95v-1.17c0-1.9,0.5-3.28,1.51-4.15s2.6-1.31,4.76-1.31v2.85
			c-1.04,0-1.77,0.19-2.19,0.58c-0.42,0.39-0.63,1.06-0.63,2.02v1.17h3.06C95.85,148.68,95.85,151.48,95.85,151.48z"/>
		<path d="M98.77,152.47c0.69-1.28,1.63-2.27,2.82-2.98c1.19-0.71,2.5-1.07,3.95-1.07c1.3,0,2.43,0.25,3.41,0.76
			c0.97,0.51,1.74,1.15,2.32,1.91v-2.4h3.45v16.53h-3.45v-2.46c-0.58,0.78-1.37,1.43-2.37,1.95s-2.14,0.78-3.42,0.78
			c-1.42,0-2.72-0.37-3.9-1.1c-1.18-0.73-2.12-1.75-2.81-3.06c-0.69-1.31-1.03-2.79-1.03-4.46S98.08,153.75,98.77,152.47z
			 M110.56,153.97c-0.47-0.84-1.08-1.48-1.84-1.92c-0.76-0.44-1.58-0.66-2.46-0.66s-1.7,0.22-2.46,0.65s-1.38,1.06-1.84,1.89
			c-0.47,0.83-0.71,1.82-0.71,2.96s0.23,2.14,0.71,3c0.47,0.86,1.09,1.51,1.86,1.96c0.77,0.45,1.58,0.67,2.45,0.67
			c0.88,0,1.7-0.22,2.46-0.66s1.38-1.08,1.84-1.94c0.47-0.85,0.71-1.84,0.71-2.98C111.27,155.8,111.03,154.81,110.56,153.97z"/>
		<path d="M131.05,149.23c1.03,0.54,1.83,1.34,2.42,2.4c0.58,1.06,0.87,2.34,0.87,3.84v9.75h-3.39v-9.24c0-1.48-0.37-2.61-1.11-3.4
			s-1.75-1.19-3.03-1.19s-2.29,0.4-3.04,1.19s-1.12,1.92-1.12,3.4v9.24h-3.42v-16.53h3.42v1.89c0.56-0.68,1.28-1.21,2.15-1.59
			c0.87-0.38,1.79-0.57,2.77-0.57C128.86,148.42,130.02,148.69,131.05,149.23z"/>
		<path d="M142.68,151.48v9.15c0,0.62,0.14,1.07,0.43,1.33c0.29,0.27,0.79,0.41,1.49,0.41h2.1v2.85H144c-1.54,0-2.72-0.36-3.54-1.08
			s-1.23-1.89-1.23-3.51v-9.15h-1.95v-2.79h1.95v-4.11h3.45v4.11h4.02v2.79L142.68,151.48L142.68,151.48z"/>
		<path d="M150.03,145.87c-0.42-0.42-0.63-0.94-0.63-1.56s0.21-1.14,0.63-1.56c0.42-0.42,0.94-0.63,1.56-0.63
			c0.6,0,1.11,0.21,1.53,0.63c0.42,0.42,0.63,0.94,0.63,1.56s-0.21,1.14-0.63,1.56c-0.42,0.42-0.93,0.63-1.53,0.63
			C150.97,146.5,150.45,146.29,150.03,145.87z M153.27,148.69v16.53h-3.42v-16.53H153.27z"/>
	</g>
	<g>
		<path class="st1" d="M88.63,171.92l-3.65,9.73h-1.85l-3.67-9.73h1.71l2.88,8.09l2.9-8.09H88.63z"/>
		<path class="st1" d="M91.56,171.92v9.73h-1.6v-9.73H91.56z"/>
		<path class="st1" d="M99.56,172.51c0.78,0.4,1.38,0.97,1.81,1.71s0.64,1.61,0.64,2.6s-0.21,1.85-0.64,2.58
			c-0.42,0.73-1.03,1.29-1.81,1.67c-0.78,0.39-1.69,0.58-2.72,0.58h-3.18v-9.73h3.18C97.87,171.92,98.78,172.11,99.56,172.51z
			 M99.45,179.42c0.61-0.62,0.91-1.48,0.91-2.6c0-1.13-0.3-2.01-0.91-2.65s-1.48-0.95-2.62-0.95h-1.58v7.13h1.58
			C97.97,180.34,98.85,180.04,99.45,179.42z"/>
		<path class="st1" d="M105.18,173.2v2.86h3.36v1.3h-3.36v2.98h3.78v1.3h-5.38v-9.74h5.38v1.3H105.18z"/>
		<path class="st1" d="M112.86,181.11c-0.76-0.42-1.36-1.02-1.81-1.78c-0.44-0.76-0.67-1.62-0.67-2.57s0.22-1.81,0.67-2.56
			c0.44-0.76,1.05-1.35,1.81-1.77s1.59-0.64,2.5-0.64s1.75,0.21,2.51,0.64s1.36,1.01,1.8,1.77c0.44,0.76,0.66,1.61,0.66,2.56
			s-0.22,1.81-0.66,2.57c-0.44,0.76-1.04,1.35-1.8,1.78s-1.6,0.64-2.51,0.64C114.45,181.74,113.62,181.53,112.86,181.11z
			 M117.08,179.92c0.5-0.29,0.9-0.71,1.18-1.26c0.29-0.55,0.43-1.18,0.43-1.9s-0.14-1.35-0.43-1.89c-0.28-0.54-0.68-0.96-1.18-1.25
			s-1.08-0.43-1.72-0.43s-1.22,0.15-1.72,0.43s-0.9,0.7-1.18,1.25c-0.29,0.54-0.43,1.17-0.43,1.89s0.14,1.35,0.43,1.9
			c0.28,0.55,0.68,0.97,1.18,1.26s1.08,0.44,1.72,0.44C116,180.36,116.58,180.21,117.08,179.92z"/>
	</g>
</g>
</svg>
